<svg id="Iconly_Light-outline_Profile" data-name="Iconly/Light-outline/Profile" xmlns="http://www.w3.org/2000/svg" width="16.088" height="16.088" viewBox="0 0 16.088 16.088">
  <g id="Profile" transform="translate(2.681 1.609)">
    <path id="Profile-2" data-name="Profile" d="M4.475,13.383l-.191,0-.1,0a1.484,1.484,0,0,1-.27-.031,10.322,10.322,0,0,1-1.564-.227l-.171-.036A2.655,2.655,0,0,1,.188,11.808,1.968,1.968,0,0,1,0,10.969a1.928,1.928,0,0,1,.192-.847A2.9,2.9,0,0,1,2.34,8.816a11.222,11.222,0,0,1,1.568-.222c.481-.042.971-.063,1.454-.063s.973.021,1.454.063l.309.026a11.54,11.54,0,0,1,1.255.2,2.755,2.755,0,0,1,2.155,1.315,1.952,1.952,0,0,1,0,1.678,2.743,2.743,0,0,1-2.147,1.307l-.314.065a10.531,10.531,0,0,1-1.26.164c-.48.041-.966.062-1.447.062C5.069,13.407,4.768,13.4,4.475,13.383ZM3.983,9.562a10.408,10.408,0,0,0-1.445.2,2.151,2.151,0,0,0-1.478.783.95.95,0,0,0-.094.418.973.973,0,0,0,.093.421c.171.354.687.623,1.493.781l.236.05a10.394,10.394,0,0,0,1.256.167,1.234,1.234,0,0,0,.192.022l.264,0c.288.016.58.024.869.024.454,0,.916-.019,1.372-.059a9.614,9.614,0,0,0,1.449-.211l.151-.032c.711-.161,1.169-.418,1.322-.743a.981.981,0,0,0,0-.844c-.164-.346-.676-.617-1.48-.782a10.439,10.439,0,0,0-1.442-.2H6.732c-.452-.04-.912-.06-1.366-.06S4.442,9.521,3.983,9.562ZM1.8,3.576A3.561,3.561,0,1,1,5.365,7.153,3.573,3.573,0,0,1,1.8,3.576Zm.966,0A2.595,2.595,0,1,0,5.365.971,2.6,2.6,0,0,0,2.771,3.576Z" fill="#61ba6e"/>
  </g>
</svg>
